<svg width="31" height="22" viewBox="0 0 31 22" fill="none" xmlns="http://www.w3.org/2000/svg">
<path d="M12.0688 20.8951L12.0603 20.8916L12.0336 20.8776C11.8775 20.795 11.7227 20.7102 11.5692 20.6232C9.7235 19.568 7.99863 18.3284 6.42321 16.9249C3.63316 14.4201 0.677002 10.7031 0.677002 6.12508C0.677002 2.70908 3.66469 8.27764e-05 7.27077 8.27764e-05C8.27324 -0.00464155 9.26391 0.208147 10.1691 0.622622C11.0743 1.0371 11.8708 1.6426 12.4992 2.39408C13.1278 1.64244 13.9244 1.03685 14.8299 0.622368C15.7353 0.207886 16.7262 -0.00481723 17.7289 8.27764e-05C21.3338 8.27764e-05 24.3214 2.70908 24.3214 6.12508C24.3214 10.7042 21.3653 14.4212 18.5752 16.9237C16.9999 18.3272 15.275 19.5669 13.4292 20.6221C13.2757 20.7094 13.1209 20.7946 12.9648 20.8776L12.9382 20.8916L12.9297 20.8962L12.926 20.8974C12.7946 20.9644 12.648 20.9995 12.4992 20.9995C12.3504 20.9995 12.2039 20.9644 12.0724 20.8974L12.0688 20.8951Z" fill="white"/>
<path d="M22.7815 18.9668L26.097 12.7335H23.8105V8.70012L20.3807 14.9335H22.7815V18.9668ZM23.2388 21.1668C22.1845 21.1668 21.1937 20.9743 20.2664 20.5893C19.3391 20.2043 18.5325 19.6818 17.8465 19.0218C17.1606 18.3618 16.6175 17.5857 16.2174 16.6935C15.8173 15.8012 15.6172 14.8479 15.6172 13.8335C15.6172 12.819 15.8173 11.8657 16.2174 10.9735C16.6175 10.0812 17.1606 9.30512 17.8465 8.64512C18.5325 7.98512 19.3391 7.46262 20.2664 7.07762C21.1937 6.69262 22.1845 6.50012 23.2388 6.50012C24.2932 6.50012 25.284 6.69262 26.2113 7.07762C27.1386 7.46262 27.9452 7.98512 28.6312 8.64512C29.3171 9.30512 29.8602 10.0812 30.2603 10.9735C30.6604 11.8657 30.8605 12.819 30.8605 13.8335C30.8605 14.8479 30.6604 15.8012 30.2603 16.6935C29.8602 17.5857 29.3171 18.3618 28.6312 19.0218C27.9452 19.6818 27.1386 20.2043 26.2113 20.5893C25.284 20.9743 24.2932 21.1668 23.2388 21.1668Z" fill="#894189"/>
<path d="M23.1695 18.5001L26.1836 12.8334H24.1049V9.16675L20.987 14.8334H23.1695V18.5001ZM23.5853 20.5001C22.6268 20.5001 21.726 20.3251 20.883 19.9751C20.04 19.6251 19.3068 19.1501 18.6832 18.5501C18.0596 17.9501 17.5659 17.2445 17.2021 16.4334C16.8384 15.6223 16.6565 14.7556 16.6565 13.8334C16.6565 12.9112 16.8384 12.0445 17.2021 11.2334C17.5659 10.4223 18.0596 9.71675 18.6832 9.11675C19.3068 8.51675 20.04 8.04175 20.883 7.69175C21.726 7.34175 22.6268 7.16675 23.5853 7.16675C24.5437 7.16675 25.4445 7.34175 26.2875 7.69175C27.1305 8.04175 27.8638 8.51675 28.4874 9.11675C29.111 9.71675 29.6046 10.4223 29.9684 11.2334C30.3322 12.0445 30.514 12.9112 30.514 13.8334C30.514 14.7556 30.3322 15.6223 29.9684 16.4334C29.6046 17.2445 29.111 17.9501 28.4874 18.5501C27.8638 19.1501 27.1305 19.6251 26.2875 19.9751C25.4445 20.3251 24.5437 20.5001 23.5853 20.5001Z" fill="white"/>
</svg>
