<svg width="23" height="22" viewBox="0 0 23 22" fill="none" xmlns="http://www.w3.org/2000/svg">
<path d="M10.1156 17.9945H12.0408V16.6714C12.9575 16.5126 13.7459 16.1686 14.406 15.6393C15.0661 15.1101 15.3961 14.325 15.3961 13.2842C15.3961 12.5432 15.1761 11.864 14.736 11.2466C14.296 10.6291 13.4159 10.091 12.0958 9.63235C10.9956 9.27952 10.2347 8.97079 9.81302 8.70616C9.39131 8.44154 9.18045 8.07988 9.18045 7.6212C9.18045 7.16252 9.35005 6.80086 9.68926 6.53624C10.0285 6.27161 10.5189 6.1393 11.1607 6.1393C11.7474 6.1393 12.2058 6.27602 12.5358 6.54947C12.8658 6.82291 13.1042 7.16252 13.2509 7.56828L15.0111 6.88025C14.8094 6.26279 14.4381 5.72472 13.8972 5.26604C13.3563 4.80735 12.7558 4.55155 12.0958 4.49863V3.1755H10.1706V4.49863C9.25379 4.69268 8.53872 5.0808 8.02533 5.66298C7.51194 6.24515 7.25525 6.89789 7.25525 7.6212C7.25525 8.45036 7.50736 9.12074 8.01158 9.63235C8.5158 10.144 9.3088 10.585 10.3906 10.9555C11.5457 11.3612 12.3479 11.7229 12.7971 12.0404C13.2463 12.358 13.4709 12.7726 13.4709 13.2842C13.4709 13.8664 13.2555 14.2942 12.8246 14.5676C12.3937 14.8411 11.8757 14.9778 11.2707 14.9778C10.6656 14.9778 10.1293 14.7969 9.66175 14.4353C9.1942 14.0736 8.85042 13.5312 8.63039 12.8079L6.8152 13.4959C7.0719 14.3427 7.47069 15.0263 8.01158 15.5467C8.55247 16.0671 9.25379 16.4244 10.1156 16.6185V17.9945ZM11.1057 21.17C9.58383 21.17 8.15368 20.8921 6.8152 20.3364C5.47673 19.7807 4.31244 19.0265 3.32233 18.0739C2.33223 17.1212 1.54839 16.001 0.970834 14.7132C0.393273 13.4253 0.104492 12.0493 0.104492 10.585C0.104492 9.12074 0.393273 7.74469 0.970834 6.45685C1.54839 5.16901 2.33223 4.04876 3.32233 3.09611C4.31244 2.14346 5.47673 1.38928 6.8152 0.833569C8.15368 0.277856 9.58383 0 11.1057 0C12.6275 0 14.0576 0.277856 15.3961 0.833569C16.7346 1.38928 17.8989 2.14346 18.889 3.09611C19.8791 4.04876 20.6629 5.16901 21.2405 6.45685C21.818 7.74469 22.1068 9.12074 22.1068 10.585C22.1068 12.0493 21.818 13.4253 21.2405 14.7132C20.6629 16.001 19.8791 17.1212 18.889 18.0739C17.8989 19.0265 16.7346 19.7807 15.3961 20.3364C14.0576 20.8921 12.6275 21.17 11.1057 21.17Z" fill="white"/>
</svg>
